<svg width="128" height="128" viewBox="0 0 128 128" fill="none" xmlns="http://www.w3.org/2000/svg">
<rect width="128" height="128" rx="15" fill="#047230"/>
<g filter="url(#filter0_d_843_32)">
<path d="M76.8 23.4666H51.2C35.9253 23.4666 23.4667 35.9253 23.4667 51.2V76.8C23.4667 92.0746 35.9253 104.533 51.2 104.533H76.8C92.0747 104.533 104.533 92.0746 104.533 76.8V51.2C104.533 35.9253 92.0747 23.4666 76.8 23.4666ZM81.0667 68.2666H68.2667V81.0666C68.2667 83.4133 66.3467 85.3333 64 85.3333C61.6533 85.3333 59.7333 83.4133 59.7333 81.0666V68.2666H46.9333C44.5867 68.2666 42.6667 66.3466 42.6667 64C42.6667 61.6533 44.5867 59.7333 46.9333 59.7333H59.7333V46.9333C59.7333 44.5866 61.6533 42.6666 64 42.6666C66.3467 42.6666 68.2667 44.5866 68.2667 46.9333V59.7333H81.0667C83.4133 59.7333 85.3333 61.6533 85.3333 64C85.3333 66.3466 83.4133 68.2666 81.0667 68.2666Z" fill="#FAFAFA"/>
</g>
<defs>
<filter id="filter0_d_843_32" x="21.4667" y="23.4666" width="83.0667" height="83.0667" filterUnits="userSpaceOnUse" color-interpolation-filters="sRGB">
<feFlood flood-opacity="0" result="BackgroundImageFix"/>
<feColorMatrix in="SourceAlpha" type="matrix" values="0 0 0 0 0 0 0 0 0 0 0 0 0 0 0 0 0 0 127 0" result="hardAlpha"/>
<feOffset dx="-2" dy="2"/>
<feComposite in2="hardAlpha" operator="out"/>
<feColorMatrix type="matrix" values="0 0 0 0 0 0 0 0 0 0 0 0 0 0 0 0 0 0 0.65 0"/>
<feBlend mode="normal" in2="BackgroundImageFix" result="effect1_dropShadow_843_32"/>
<feBlend mode="normal" in="SourceGraphic" in2="effect1_dropShadow_843_32" result="shape"/>
</filter>
</defs>
</svg>
